<?xml version="1.0" encoding="UTF-8" standalone="no"?>
<!-- Created with Inkscape (http://www.inkscape.org/) -->

<svg
   xmlns:dc="http://purl.org/dc/elements/1.1/"
   xmlns:cc="http://creativecommons.org/ns#"
   xmlns:rdf="http://www.w3.org/1999/02/22-rdf-syntax-ns#"
   xmlns:svg="http://www.w3.org/2000/svg"
   xmlns="http://www.w3.org/2000/svg"
   xmlns:xlink="http://www.w3.org/1999/xlink"
   xmlns:sodipodi="http://sodipodi.sourceforge.net/DTD/sodipodi-0.dtd"
   xmlns:inkscape="http://www.inkscape.org/namespaces/inkscape"
   width="512"
   height="512"
   viewBox="0 0 135.46666 135.46666"
   version="1.1"
   id="svg8"
   inkscape:version="0.92.3 (2405546, 2018-03-11)"
   sodipodi:docname="fauxtellogo2.svg">
  <defs
     id="defs2">
    <linearGradient
       inkscape:collect="always"
       id="linearGradient282">
      <stop
         style="stop-color:#441650;stop-opacity:1;"
         offset="0"
         id="stop278" />
      <stop
         style="stop-color:#441650;stop-opacity:0;"
         offset="1"
         id="stop280" />
    </linearGradient>
    <linearGradient
       inkscape:collect="always"
       xlink:href="#linearGradient282"
       id="linearGradient284"
       x1="217.1828"
       y1="25.106472"
       x2="550.53314"
       y2="183.70042"
       gradientUnits="userSpaceOnUse" />
    <linearGradient
       inkscape:collect="always"
       xlink:href="#linearGradient282"
       id="linearGradient332"
       x1="124.28033"
       y1="243.27885"
       x2="10.156241"
       y2="210.67197"
       gradientUnits="userSpaceOnUse" />
  </defs>
  <sodipodi:namedview
     id="base"
     pagecolor="#ffffff"
     bordercolor="#666666"
     borderopacity="1.0"
     inkscape:pageopacity="0.0"
     inkscape:pageshadow="2"
     inkscape:zoom="0.98994949"
     inkscape:cx="400"
     inkscape:cy="271.80208"
     inkscape:document-units="px"
     inkscape:current-layer="layer1"
     showgrid="false"
     inkscape:window-width="1920"
     inkscape:window-height="1052"
     inkscape:window-x="1600"
     inkscape:window-y="0"
     inkscape:window-maximized="1"
     units="px" />
  <metadata
     id="metadata5">
    <rdf:RDF>
      <cc:Work
         rdf:about="">
        <dc:format>image/svg+xml</dc:format>
        <dc:type
           rdf:resource="http://purl.org/dc/dcmitype/StillImage" />
        <dc:title></dc:title>
      </cc:Work>
    </rdf:RDF>
  </metadata>
  <g
     inkscape:groupmode="layer"
     id="layer2"
     inkscape:label="bgcolor">
    <rect
       style="fill:#916f6f;stroke-width:0.26458332"
       id="rect178"
       width="138.17833"
       height="137.10925"
       x="-0.53453904"
       y="-0.038983837" />
    <path
       style="fill:url(#linearGradient284);stroke-width:1.01015258;fill-opacity:1"
       d="M -1.2325922,258.5827 V -0.01635598 H 259.38677 520.00612 V 258.5827 517.18175 H 259.38677 -1.2325922 Z m 54.1387482,49.99993 c 4.979958,-2.91844 11.416583,-10.49162 15.107275,-17.77486 3.692793,-7.28737 5.341534,-14.57283 8.892945,-39.29614 l 3.264854,-22.72843 9.805716,-0.28912 9.805717,-0.28912 v -3.49895 -3.49896 H 90.69129 c -5.853982,0 -9.091373,-0.3897 -9.091373,-1.09439 0,-5.80199 7.388591,-26.01827 10.12782,-27.71121 0.591175,-0.36536 3.53188,1.23128 6.534899,3.54809 6.021344,4.64543 8.437104,4.73977 11.254744,0.43952 3.46774,-5.29244 -2.10134,-11.55862 -10.239794,-11.52154 -11.53389,0.0525 -22.182753,11.48603 -26.787437,28.76116 -1.552547,5.8246 -1.822432,6.16016 -6.859783,8.529 -4.215866,1.98252 -5.243653,2.94991 -5.243653,4.93552 0,2.34934 0.223593,2.43903 4.588947,1.84069 l 4.588947,-0.62898 -0.561329,3.2696 c -0.30873,1.79828 -1.917904,12.58826 -3.575942,23.97773 -3.586473,24.63637 -5.598702,34.38457 -8.277899,40.10214 -3.013997,6.43205 -3.639257,6.69005 -11.454905,4.72683 -6.552194,-1.64586 -6.872331,-1.63977 -8.185186,0.15567 -3.825512,5.2317 0.926739,12.29576 7.548866,11.22114 1.847974,-0.29989 5.379549,-1.72881 7.847944,-3.17539 z M 125.04863,281.81 c 2.18476,-1.11458 5.57591,-3.43451 7.53591,-5.1554 l 3.56361,-3.1289 v 3.1351 c 0,7.14742 7.16734,9.05752 18.99676,5.06267 5.25721,-1.77539 6.25706,-2.48646 6.25706,-4.4499 0,-2.23517 -0.25528,-2.3137 -5.86613,-1.80493 -6.31796,0.5729 -9.28616,-0.94072 -9.28616,-4.73539 0,-2.70695 8.86198,-45.76087 10.07691,-48.95637 0.56912,-1.49692 1.03477,-2.91934 1.03477,-3.16097 0,-0.98484 -7.76217,-0.35431 -8.83407,0.71759 -0.86911,0.86912 -2.31133,0.83369 -5.79749,-0.14237 -5.86528,-1.64217 -15.67272,-0.79873 -21.93743,1.88665 -13.4005,5.74412 -23.030012,22.03418 -23.030012,38.9594 0,10.99942 3.001372,17.9223 9.483882,21.87522 4.26473,2.60056 12.59812,2.55263 17.80239,-0.1024 z m 69.52003,0.1631 c 2.69725,-1.02487 7.02052,-3.31955 9.60728,-5.09929 l 4.7032,-3.23588 v 3.07898 c 0,6.92195 7.39686,8.95304 19.16534,5.26257 5.26211,-1.65015 5.61472,-1.64718 7.32361,0.0617 2.20615,2.20615 8.83585,2.38536 12.78054,0.34549 4.01306,-2.07524 9.29896,-8.24992 14.37092,-16.78731 l 4.39634,-7.40013 0.864,3.9798 c 4.40016,20.26805 9.34284,24.35693 23.93176,19.79781 4.73614,-1.48008 5.60224,-2.13385 5.87039,-4.43125 0.3034,-2.59957 0.19633,-2.6611 -3.02379,-1.73758 -5.19646,1.49033 -6.82451,1.17553 -9.9177,-1.91765 -2.00123,-2.00124 -3.83649,-5.96968 -6.0383,-13.05684 l -3.16323,-10.18176 2.71349,-5.37845 c 3.91112,-7.75224 8.10518,-13.29097 11.64975,-15.3848 3.082,-1.82059 3.09733,-1.81805 6.03998,1.0012 l 2.95014,2.8264 2.77309,-2.06457 c 3.9897,-2.97035 5.04969,-6.60664 2.88773,-9.90623 -5.7423,-8.76384 -19.03639,-1.90649 -28.0261,14.4564 -1.8718,3.40701 -3.64352,6.19996 -3.93715,6.20655 -0.29363,0.007 -1.34229,-3.12618 -2.33035,-6.96172 -2.42404,-9.40987 -5.6302,-15.47151 -9.0386,-17.08861 -2.44975,-1.16227 -3.68443,-1.04938 -9.59645,0.87748 -11.35308,3.7002 -12.26452,6.84098 -2.26408,7.8019 4.77168,0.4585 5.31833,0.79623 7.53552,4.65565 1.31482,2.28871 3.44578,7.49272 4.73545,11.56446 l 2.34485,7.40318 -3.73695,7.25932 c -2.05861,3.99902 -6.00977,9.49795 -8.79759,12.24386 l -5.06064,4.98455 -3.04821,-2.92037 c -2.58865,-2.48008 -3.45056,-2.77699 -5.71691,-1.96936 -1.46778,0.52304 -3.17034,1.86013 -3.78348,2.9713 -1.62497,2.94491 -2.71084,3.50283 -6.85101,3.52007 -4.19369,0.0175 -6.89936,-2.09267 -6.87278,-5.35999 0.0101,-1.21038 2.42186,-13.33762 5.36004,-26.94943 l 5.34215,-24.74874 -5.47458,-0.30637 c -3.01102,-0.16849 -5.61528,-0.16565 -5.78726,0.006 -0.17198,0.17197 -2.46899,10.76491 -5.10448,23.53986 -2.75536,13.35606 -5.47156,24.03896 -6.39132,25.13731 -2.26424,2.7039 -13.13841,7.68459 -16.77957,7.68554 -4.93256,0.001 -7.54838,-2.48552 -7.54838,-7.17606 0,-2.21752 2.08937,-13.79583 4.64304,-25.72957 2.55366,-11.93375 4.36437,-22.42388 4.0238,-23.31141 -0.69082,-1.80025 -2.73252,-1.63488 -15.54879,1.25941 -6.51866,1.47209 -7.33336,1.91151 -7.06193,3.80896 0.24779,1.73223 1.29372,2.30132 5.43653,2.95801 l 5.1297,0.81312 -4.35001,19.9011 c -4.73567,21.6655 -4.95186,23.55563 -3.25204,28.43176 2.36015,6.77035 11.91785,9.06496 21.92304,5.26329 z m 124.67243,-0.14091 c 3.34973,-2.63491 4.21327,-6.35976 2.32218,-10.01671 -2.86746,-5.54506 -10.5128,-6.06043 -14.09232,-0.94994 -5.35164,7.64053 4.42184,16.74682 11.77014,10.96665 z m 50.28757,-0.6549 c 7.47771,-2.47142 8.04595,-2.85681 8.04595,-5.45697 v -2.79776 l -4.70623,1.41636 c -9.85021,2.96448 -15.49071,0.81519 -15.50266,-5.90724 -0.003,-1.80564 1.63868,-11.80615 3.64864,-22.22335 l 3.65447,-18.94036 h 9.98843 9.98842 v -3.53554 -3.53553 h -9.22048 -9.22048 l 0.66127,-4.29315 c 0.36369,-2.36123 0.92694,-5.7705 1.25168,-7.57614 0.57107,-3.17542 0.47798,-3.283 -2.84073,-3.283 -3.22152,0 -3.63129,0.40587 -6.70713,6.64335 -2.9166,5.91456 -3.8243,6.8842 -8.27422,8.83884 -3.83936,1.68644 -5.00377,2.72246 -5.02205,4.46832 -0.0209,1.99208 0.48886,2.27285 4.12631,2.27285 3.79288,0 4.10292,0.19564 3.60172,2.27284 -2.00489,8.30936 -7.75184,39.61022 -7.75184,42.22057 0,4.24229 2.61137,9.53969 5.35639,10.86594 3.79704,1.83451 10.55034,1.31701 18.92254,-1.45003 z m 51.55885,-0.13932 c 7.46638,-3.65378 13.05565,-8.97625 13.05565,-12.43246 0,-1.62347 -0.22624,-2.95175 -0.50275,-2.95175 -0.2765,0 -2.71193,1.58716 -5.41208,3.52702 -16.43237,11.80549 -29.44051,7.45347 -29.44051,-9.84966 v -5.37738 l 8.91034,-1.68443 c 10.37201,-1.96075 16.51754,-4.38537 21.28664,-8.3983 11.82777,-9.95241 5.62642,-26.73734 -9.41744,-25.48978 -22.40829,1.85827 -39.61029,33.27482 -29.98845,54.76884 2.01124,4.49285 4.05667,6.64221 8.70608,9.14839 4.43302,2.38955 16.73322,1.70961 22.80252,-1.26049 z m 48.15845,0.29657 c 3.43609,-1.40705 4.29315,-2.26183 4.29315,-4.28178 0,-2.01397 -0.35709,-2.37328 -1.76777,-1.77876 -0.97227,0.40976 -4.10933,0.96554 -6.97125,1.23505 -4.70327,0.44291 -5.36241,0.24744 -6.85688,-2.03341 -2.04962,-3.12811 -2.07076,-2.98684 7.86526,-52.53827 4.09716,-20.43273 7.07137,-37.38403 6.60937,-37.66957 -0.46202,-0.28553 -6.0997,0.50591 -12.52821,1.75876 -10.57386,2.06074 -11.66011,2.47399 -11.39372,4.33453 0.23953,1.67297 1.29607,2.17886 5.66383,2.71194 2.95315,0.36043 5.51308,0.815 5.68874,1.01015 0.17565,0.19515 -3.0441,17.40115 -7.15499,38.23555 -8.14605,41.2849 -8.57949,46.32155 -4.28585,49.80139 2.01991,1.63707 3.53037,1.86984 9.4741,1.46 3.88909,-0.26816 9.00299,-1.27867 11.36422,-2.24558 z"
       id="path252"
       inkscape:connector-curvature="0"
       transform="scale(0.26458332)" />
    <path
       style="fill:#916f8a;stroke-width:1.01015258"
       d="m 135.89364,222.35137 c -15.13586,0.2209 -25.7151,14.62538 -27.19914,28.68675 -0.95064,8.26531 -2.54369,20.53041 6.68042,24.82568 10.51854,3.44429 22.84848,-5.00577 23.64191,-16.07563 1.91061,-9.48065 4.15191,-19.04617 5.37433,-28.56443 -2.63731,-2.69478 -3.90054,-8.85794 -8.49752,-8.87237 z"
       id="path262"
       inkscape:connector-curvature="0"
       transform="scale(0.26458332)" />
    <path
       style="fill:#916f8a;stroke-width:1.01015258"
       d="m 417.78145,223.26879 c -10.42776,0.22674 -14.58093,11.73886 -18.40607,19.61819 -1.23532,2.18422 -2.83831,7.46302 1.58071,6.58461 9.51751,-0.87586 21.56358,-4.71185 24.58893,-14.86226 1.80007,-5.6282 -1.11279,-12.09031 -7.76357,-11.34054 z"
       id="path264"
       inkscape:connector-curvature="0"
       transform="scale(0.26458332)" />
  </g>
  <g
     inkscape:label="Layer 1"
     inkscape:groupmode="layer"
     id="layer1"
     transform="translate(0,-161.53336)"
     style="display:inline">
    <flowRoot
       xml:space="preserve"
       id="flowRoot29"
       style="font-style:normal;font-weight:normal;font-size:40px;line-height:1.25;font-family:sans-serif;letter-spacing:0px;word-spacing:0px;fill:#000000;fill-opacity:1;stroke:none"
       transform="matrix(0.26458333,0,0,0.26458333,0,161.53336)"><flowRegion
         id="flowRegion31"><rect
           id="rect33"
           width="513.15747"
           height="513.15747"
           x="0"
           y="0.86281204" /></flowRegion><flowPara
         id="flowPara35" /></flowRoot>    <text
       xml:space="preserve"
       style="font-style:normal;font-variant:normal;font-weight:normal;font-stretch:normal;font-size:10.58333302px;line-height:1.25;font-family:Laksaman;-inkscape-font-specification:Laksaman;letter-spacing:0px;word-spacing:0px;fill:#000000;fill-opacity:1;stroke:none;stroke-width:0.26458332"
       x="13.096206"
       y="172.45242"
       id="text39"><tspan
         sodipodi:role="line"
         id="tspan37"
         x="13.096206"
         y="181.95424"
         style="font-style:normal;font-variant:normal;font-weight:normal;font-stretch:normal;font-family:Laksaman;-inkscape-font-specification:Laksaman;stroke-width:0.26458332" /></text>
    <text
       xml:space="preserve"
       style="font-style:normal;font-variant:normal;font-weight:normal;font-stretch:normal;font-size:10.58333302px;line-height:1.25;font-family:Laksaman;-inkscape-font-specification:Laksaman;letter-spacing:0px;word-spacing:0px;fill:#000000;fill-opacity:1;stroke:none;stroke-width:0.26458332"
       x="13.630745"
       y="185.8159"
       id="text43"><tspan
         sodipodi:role="line"
         id="tspan41"
         x="13.630745"
         y="195.31772"
         style="font-style:normal;font-variant:normal;font-weight:normal;font-stretch:normal;font-family:Laksaman;-inkscape-font-specification:Laksaman;stroke-width:0.26458332" /></text>
    <text
       xml:space="preserve"
       style="font-style:normal;font-variant:normal;font-weight:normal;font-stretch:normal;font-size:14.11111069px;line-height:1.25;font-family:Laksaman;-inkscape-font-specification:Laksaman;letter-spacing:0px;word-spacing:0px;fill:#000000;fill-opacity:1;stroke:none;stroke-width:0.26458332"
       x="16.30344"
       y="173.25424"
       id="text47"><tspan
         sodipodi:role="line"
         id="tspan45"
         x="16.30344"
         y="185.92334"
         style="font-size:14.11111069px;stroke-width:0.26458332" /></text>
    <text
       xml:space="preserve"
       style="font-style:normal;font-variant:normal;font-weight:normal;font-stretch:normal;font-size:50.79999924px;line-height:1.25;font-family:Laksaman;-inkscape-font-specification:Laksaman;letter-spacing:0px;word-spacing:0px;fill:#000000;fill-opacity:1;stroke:none;stroke-width:0.26458332"
       x="17.639788"
       y="184.74683"
       id="text51"><tspan
         sodipodi:role="line"
         id="tspan49"
         x="17.639788"
         y="230.35556"
         style="font-size:50.79999924px;stroke-width:0.26458332" /></text>
    <text
       xml:space="preserve"
       style="font-style:normal;font-variant:normal;font-weight:normal;font-stretch:normal;font-size:50.79999924px;line-height:1.25;font-family:Laksaman;-inkscape-font-specification:Laksaman;letter-spacing:0px;word-spacing:0px;fill:#000000;fill-opacity:1;stroke:none;stroke-width:0.26458332"
       x="17.105249"
       y="181.80685"
       id="text55"><tspan
         sodipodi:role="line"
         x="17.105249"
         y="227.41559"
         style="stroke-width:0.26458332"
         id="tspan57" /></text>
    <text
       xml:space="preserve"
       style="font-style:normal;font-variant:normal;font-weight:normal;font-stretch:normal;font-size:70.55554962px;line-height:1.25;font-family:Laksaman;-inkscape-font-specification:Laksaman;letter-spacing:0px;word-spacing:0px;fill:#000000;fill-opacity:1;stroke:none;stroke-width:0.26458332"
       x="18.174328"
       y="214.94827"
       id="text63"><tspan
         sodipodi:role="line"
         x="18.174328"
         y="278.29373"
         style="font-size:70.55554962px;stroke-width:0.26458332"
         id="tspan69" /><tspan
         sodipodi:role="line"
         x="18.174328"
         y="366.48816"
         style="font-size:70.55554962px;stroke-width:0.26458332"
         id="tspan73" /></text>
    <text
       xml:space="preserve"
       style="font-style:normal;font-variant:normal;font-weight:normal;font-stretch:normal;font-size:50.79999924px;line-height:1.25;font-family:Laksaman;-inkscape-font-specification:Laksaman;letter-spacing:0px;word-spacing:0px;fill:#000000;fill-opacity:1;stroke:none;stroke-width:0.26458332"
       x="72.162766"
       y="262.25497"
       id="text77"><tspan
         sodipodi:role="line"
         id="tspan75"
         x="72.162766"
         y="307.86371"
         style="stroke-width:0.26458332" /></text>
    <text
       xml:space="preserve"
       style="font-style:normal;font-variant:normal;font-weight:normal;font-stretch:normal;font-size:70.55554962px;line-height:1.25;font-family:Laksaman;-inkscape-font-specification:Laksaman;letter-spacing:0px;word-spacing:0px;fill:#000000;fill-opacity:1;stroke:none;stroke-width:0.26458332"
       x="16.570711"
       y="221.36275"
       id="text81"><tspan
         sodipodi:role="line"
         id="tspan79"
         x="16.570711"
         y="284.70819"
         style="stroke-width:0.26458332" /></text>
    <text
       xml:space="preserve"
       style="font-style:normal;font-variant:normal;font-weight:normal;font-stretch:normal;font-size:70.55554962px;line-height:1.25;font-family:Laksaman;-inkscape-font-specification:Laksaman;letter-spacing:0px;word-spacing:0px;fill:#000000;fill-opacity:1;stroke:none;stroke-width:0.26458332"
       x="37.952271"
       y="271.87668"
       id="text85"><tspan
         sodipodi:role="line"
         id="tspan83"
         x="37.952271"
         y="335.22214"
         style="stroke-width:0.26458332" /></text>
    <text
       xml:space="preserve"
       style="font-style:normal;font-variant:normal;font-weight:normal;font-stretch:normal;font-size:70.55554962px;line-height:1.25;font-family:Laksaman;-inkscape-font-specification:Laksaman;letter-spacing:0px;word-spacing:0px;fill:#000000;fill-opacity:1;stroke:none;stroke-width:0.26458332"
       x="28.063299"
       y="265.72949"
       id="text89"><tspan
         sodipodi:role="line"
         id="tspan87"
         x="28.063299"
         y="329.07495"
         style="stroke-width:0.26458332" /></text>
    <text
       xml:space="preserve"
       style="font-style:normal;font-variant:normal;font-weight:normal;font-stretch:normal;font-size:70.55554962px;line-height:1.25;font-family:'Latin Modern Roman Slanted';-inkscape-font-specification:'Latin Modern Roman Slanted';letter-spacing:0px;word-spacing:0px;fill:#000000;fill-opacity:1;stroke:none;stroke-width:0.26458332"
       x="44.901279"
       y="233.65715"
       id="text93"><tspan
         sodipodi:role="line"
         id="tspan91"
         x="44.901279"
         y="299.34436"
         style="font-style:normal;font-variant:normal;font-weight:normal;font-stretch:normal;font-family:'Latin Modern Roman Slanted';-inkscape-font-specification:'Latin Modern Roman Slanted';stroke-width:0.26458332" /></text>
    <text
       xml:space="preserve"
       style="font-style:normal;font-variant:normal;font-weight:normal;font-stretch:normal;font-size:70.55554962px;line-height:1.25;font-family:'Latin Modern Roman Dunhill';-inkscape-font-specification:'Latin Modern Roman Dunhill';letter-spacing:0px;word-spacing:0px;fill:#000000;fill-opacity:1;stroke:none;stroke-width:0.26458332"
       x="71.360962"
       y="284.43835"
       id="text97"><tspan
         sodipodi:role="line"
         id="tspan95"
         x="71.360962"
         y="361.8378"
         style="stroke-width:0.26458332" /></text>
    <text
       xml:space="preserve"
       style="font-style:normal;font-variant:normal;font-weight:normal;font-stretch:normal;font-size:70.55554962px;line-height:1.25;font-family:'Latin Modern Sans Quotation';-inkscape-font-specification:'Latin Modern Sans Quotation';letter-spacing:0px;word-spacing:0px;fill:#000000;fill-opacity:1;stroke:none;stroke-width:0.26458332"
       x="50.24667"
       y="237.39893"
       id="text101"><tspan
         sodipodi:role="line"
         id="tspan99"
         x="50.24667"
         y="306.96671"
         style="font-style:normal;font-variant:normal;font-weight:normal;font-stretch:normal;font-family:'Latin Modern Sans Quotation';-inkscape-font-specification:'Latin Modern Sans Quotation';stroke-width:0.26458332" /></text>
    <text
       xml:space="preserve"
       style="font-style:normal;font-variant:normal;font-weight:normal;font-stretch:normal;font-size:70.55554962px;line-height:1.25;font-family:'Latin Modern Roman Slanted';-inkscape-font-specification:'Latin Modern Roman Slanted';letter-spacing:0px;word-spacing:0px;fill:#000000;fill-opacity:1;stroke:none;stroke-width:0.26458332"
       x="73.499123"
       y="268.93674"
       id="text105"><tspan
         sodipodi:role="line"
         id="tspan103"
         x="73.499123"
         y="334.62396"
         style="stroke-width:0.26458332" /></text>
    <text
       xml:space="preserve"
       style="font-style:normal;font-variant:normal;font-weight:normal;font-stretch:normal;font-size:70.55554962px;line-height:1.25;font-family:'Tlwg Typewriter';-inkscape-font-specification:'Tlwg Typewriter';letter-spacing:0px;word-spacing:0px;fill:#000000;fill-opacity:1;stroke:none;stroke-width:0.26458332"
       x="49.177593"
       y="240.07162"
       id="text109"><tspan
         sodipodi:role="line"
         id="tspan107"
         x="49.177593"
         y="305.33551"
         style="font-style:normal;font-variant:normal;font-weight:normal;font-stretch:normal;font-family:'Tlwg Typewriter';-inkscape-font-specification:'Tlwg Typewriter';stroke-width:0.26458332" /></text>
    <text
       xml:space="preserve"
       style="font-style:normal;font-variant:normal;font-weight:normal;font-stretch:normal;font-size:70.55554962px;line-height:1.25;font-family:'URW Gothic L';-inkscape-font-specification:'URW Gothic L';letter-spacing:0px;word-spacing:0px;fill:#000000;fill-opacity:1;stroke:none;stroke-width:0.26458332"
       x="50.513935"
       y="234.19168"
       id="text113"><tspan
         sodipodi:role="line"
         id="tspan111"
         x="50.513935"
         y="299.73224"
         style="font-style:normal;font-variant:normal;font-weight:normal;font-stretch:normal;font-family:'URW Gothic L';-inkscape-font-specification:'URW Gothic L';stroke-width:0.26458332" /></text>
    <text
       xml:space="preserve"
       style="font-style:normal;font-variant:normal;font-weight:normal;font-stretch:normal;font-size:70.55554962px;line-height:1.25;font-family:'URW Gothic L';-inkscape-font-specification:'URW Gothic L';letter-spacing:0px;word-spacing:0px;fill:#000000;fill-opacity:1;stroke:none;stroke-width:0.26458332"
       x="42.763123"
       y="237.93346"
       id="text117"><tspan
         sodipodi:role="line"
         id="tspan115"
         x="42.763123"
         y="303.47403"
         style="stroke-width:0.26458332" /></text>
    <text
       xml:space="preserve"
       style="font-style:normal;font-variant:normal;font-weight:normal;font-stretch:normal;font-size:70.55554962px;line-height:1.25;font-family:'Latin Modern Roman Slanted';-inkscape-font-specification:'Latin Modern Roman Slanted';letter-spacing:0px;word-spacing:0px;fill:#000000;fill-opacity:1;stroke:none;stroke-width:0.26458332"
       x="68.955536"
       y="278.0239"
       id="text121"><tspan
         sodipodi:role="line"
         id="tspan119"
         x="68.955536"
         y="343.71112"
         style="font-style:normal;font-variant:normal;font-weight:normal;font-stretch:normal;font-family:'Latin Modern Roman Slanted';-inkscape-font-specification:'Latin Modern Roman Slanted';stroke-width:0.26458332" /></text>
    <text
       xml:space="preserve"
       style="font-style:normal;font-variant:normal;font-weight:normal;font-stretch:normal;font-size:70.55554962px;line-height:1.25;font-family:'DejaVu Sans Mono';-inkscape-font-specification:'DejaVu Sans Mono';letter-spacing:0px;word-spacing:0px;fill:#000000;fill-opacity:1;stroke:none;stroke-width:0.26458332"
       x="8.8198938"
       y="248.89151"
       id="text125"><tspan
         sodipodi:role="line"
         id="tspan123"
         x="8.8198938"
         y="311.31662"
         style="font-style:normal;font-variant:normal;font-weight:normal;font-stretch:normal;font-family:'DejaVu Sans Mono';-inkscape-font-specification:'DejaVu Sans Mono';stroke-width:0.26458332" /></text>
    <text
       xml:space="preserve"
       style="font-style:italic;font-variant:normal;font-weight:normal;font-stretch:normal;font-size:70.55554962px;line-height:1.25;font-family:'Bitstream Charter';-inkscape-font-specification:'Bitstream Charter Italic';letter-spacing:0px;word-spacing:0px;fill:#000000;fill-opacity:1;stroke:none;stroke-width:0.26458332"
       x="10.423512"
       y="245.95154"
       id="text129"><tspan
         sodipodi:role="line"
         id="tspan127"
         x="10.423512"
         y="311.63318"
         style="font-style:italic;font-variant:normal;font-weight:normal;font-stretch:normal;font-family:'Bitstream Charter';-inkscape-font-specification:'Bitstream Charter Italic';stroke-width:0.26458332" /></text>
    <text
       xml:space="preserve"
       style="font-style:italic;font-variant:normal;font-weight:normal;font-stretch:normal;font-size:70.55554962px;line-height:1.25;font-family:'Bitstream Charter';-inkscape-font-specification:'Bitstream Charter Italic';letter-spacing:0px;word-spacing:0px;fill:#000000;fill-opacity:1;stroke:none;stroke-width:0.26458332"
       x="13.898014"
       y="249.69331"
       id="text133"><tspan
         sodipodi:role="line"
         id="tspan131"
         x="13.898014"
         y="315.37497"
         style="stroke-width:0.26458332" /></text>
    <text
       xml:space="preserve"
       style="font-style:italic;font-variant:normal;font-weight:normal;font-stretch:normal;font-size:70.55554962px;line-height:1.25;font-family:'Bitstream Charter';-inkscape-font-specification:'Bitstream Charter Italic';letter-spacing:0px;word-spacing:0px;fill:#000000;fill-opacity:1;stroke:none;stroke-width:0.26458332"
       x="3.7417731"
       y="255.0387"
       id="text137"><tspan
         sodipodi:role="line"
         id="tspan135"
         x="3.7417731"
         y="320.72034"
         style="stroke-width:0.26458332" /></text>
    <text
       xml:space="preserve"
       style="font-style:italic;font-variant:normal;font-weight:normal;font-stretch:normal;font-size:70.55554962px;line-height:1.25;font-family:'Bitstream Charter';-inkscape-font-specification:'Bitstream Charter Italic';letter-spacing:0px;word-spacing:0px;fill:#000000;fill-opacity:1;stroke:none;stroke-width:0.26458332"
       x="5.3453903"
       y="255.30597"
       id="text141"><tspan
         sodipodi:role="line"
         id="tspan139"
         x="5.3453903"
         y="320.98761"
         style="stroke-width:0.26458332" /></text>
    <text
       xml:space="preserve"
       style="font-style:italic;font-variant:normal;font-weight:normal;font-stretch:normal;font-size:70.55554962px;line-height:1.25;font-family:'Bitstream Charter';-inkscape-font-specification:'Bitstream Charter Italic';letter-spacing:0px;word-spacing:0px;fill:#000000;fill-opacity:1;stroke:none;stroke-width:0.26458332"
       x="9.0871639"
       y="248.35698"
       id="text145"><tspan
         sodipodi:role="line"
         id="tspan143"
         x="9.0871639"
         y="314.03864"
         style="stroke-width:0.26458332" /></text>
    <text
       xml:space="preserve"
       style="font-style:italic;font-variant:normal;font-weight:normal;font-stretch:normal;font-size:50.79999924px;line-height:1.25;font-family:'Bitstream Charter';-inkscape-font-specification:'Bitstream Charter Italic';letter-spacing:0px;word-spacing:0px;fill:#000000;fill-opacity:1;stroke:none;stroke-width:0.26458332"
       x="17.639788"
       y="248.89151"
       id="text149"><tspan
         sodipodi:role="line"
         id="tspan147"
         x="17.639788"
         y="296.18231"
         style="font-size:50.79999924px;stroke-width:0.26458332" /></text>
    <text
       xml:space="preserve"
       style="font-style:italic;font-variant:normal;font-weight:normal;font-stretch:normal;font-size:45.86111069px;line-height:1.25;font-family:'Bitstream Charter';-inkscape-font-specification:'Bitstream Charter Italic';letter-spacing:0px;word-spacing:0px;fill:#000000;fill-opacity:1;stroke:none;stroke-width:0.26458332"
       x="4.5435815"
       y="249.96059"
       id="text153"><tspan
         sodipodi:role="line"
         id="tspan151"
         x="4.5435815"
         y="292.65366"
         style="font-size:45.86111069px;stroke-width:0.26458332" /></text>
    <text
       xml:space="preserve"
       style="font-style:italic;font-variant:normal;font-weight:normal;font-stretch:normal;font-size:45.86111069px;line-height:1.25;font-family:'Bitstream Charter';-inkscape-font-specification:'Bitstream Charter Italic';letter-spacing:0px;word-spacing:0px;fill:#000000;fill-opacity:1;stroke:none;stroke-width:0.26458332"
       x="9.6217031"
       y="245.68428"
       id="text157"><tspan
         sodipodi:role="line"
         id="tspan155"
         x="9.6217031"
         y="288.37735"
         style="font-size:45.86111069px;stroke-width:0.26458332" /></text>
    <text
       xml:space="preserve"
       style="font-style:italic;font-variant:normal;font-weight:normal;font-stretch:normal;font-size:45.86110687px;line-height:1.25;font-family:'Bitstream Charter';-inkscape-font-specification:'Bitstream Charter Italic';letter-spacing:0px;word-spacing:0px;fill:#000000;fill-opacity:1;stroke:none;stroke-width:0.26458332"
       x="8.5526247"
       y="251.02966"
       id="text161"><tspan
         sodipodi:role="line"
         id="tspan159"
         x="8.5526247"
         y="293.72275"
         style="stroke-width:0.26458332" /></text>
    <text
       xml:space="preserve"
       style="font-style:italic;font-variant:normal;font-weight:normal;font-stretch:normal;font-size:35.27777481px;line-height:1.25;font-family:'Bitstream Charter';-inkscape-font-specification:'Bitstream Charter Italic';letter-spacing:0px;word-spacing:0px;fill:#000000;fill-opacity:1;stroke:none;stroke-width:0.26458332"
       x="7.4835463"
       y="244.61519"
       id="text165"><tspan
         sodipodi:role="line"
         id="tspan163"
         x="7.4835463"
         y="277.45602"
         style="font-size:35.27777481px;stroke-width:0.26458332" /></text>
    <text
       xml:space="preserve"
       style="font-style:italic;font-variant:normal;font-weight:normal;font-stretch:normal;font-size:35.27777481px;line-height:1.25;font-family:'Bitstream Charter';-inkscape-font-specification:'Bitstream Charter Italic';letter-spacing:0px;word-spacing:0px;fill:#000000;fill-opacity:1;stroke:none;stroke-width:0.26458332"
       x="5.3453903"
       y="237.93346"
       id="text169"><tspan
         sodipodi:role="line"
         id="tspan167"
         x="5.3453903"
         y="270.77429"
         style="stroke-width:0.26458332" /></text>
    <text
       xml:space="preserve"
       style="font-style:italic;font-variant:normal;font-weight:normal;font-stretch:normal;font-size:35.27777481px;line-height:1.25;font-family:'Bitstream Charter';-inkscape-font-specification:'Bitstream Charter Italic';letter-spacing:0px;word-spacing:0px;fill:url(#linearGradient332);fill-opacity:1;stroke:none;stroke-width:0.26458332"
       x="14.967093"
       y="236.32985"
       id="text173"><tspan
         sodipodi:role="line"
         id="tspan171"
         x="14.967093"
         y="236.32985"
         style="stroke-width:0.26458332;fill-opacity:1;fill:url(#linearGradient332)">faux.tel</tspan></text>
    <path
       style="fill:#4b1f53;fill-opacity:1;stroke-width:1.01015258"
       d="m 135.88575,222.35334 c -15.13304,0.22186 -25.70686,14.62739 -27.19125,28.68478 -0.95073,8.26551 -2.54321,20.52763 6.67845,24.82568 10.49273,3.43278 22.89044,-4.97901 23.6202,-16.06379 1.86629,-9.5641 4.05261,-19.21267 5.24214,-28.81105 -2.57247,-2.6449 -3.82424,-8.67218 -8.34954,-8.63562 z"
       id="path326"
       inkscape:connector-curvature="0"
       transform="matrix(0.26458332,0,0,0.26458332,0,161.53336)" />
    <path
       style="fill:#7c5767;fill-opacity:1;stroke-width:1.01015258"
       d="m 417.81301,223.27471 c -10.81437,0.66087 -15.78521,12.46543 -18.83776,21.29212 -3.65887,6.08314 2.60587,5.40738 6.66858,4.35431 9.37794,-1.86679 21.61517,-7.99659 20.24054,-19.38033 -0.26843,-4.15234 -4.107,-6.68961 -8.07136,-6.2661 z"
       id="path328"
       inkscape:connector-curvature="0"
       transform="matrix(0.26458332,0,0,0.26458332,0,161.53336)" />
  </g>
</svg>
